{
	"asset":{
		"generator":"Khronos glTF Blender I/O v4.2.60",
		"version":"2.0"
	},
	"extensionsUsed":[
		"KHR_materials_specular",
		"KHR_materials_ior"
	],
	"scene":0,
	"scenes":[
		{
			"name":"Scene",
			"nodes":[
				0,
				1
			]
		}
	],
	"nodes":[
		{
			"camera":0,
			"name":"Camera",
			"translation":[
				0,
				0,
				6
			]
		},
		{
			"mesh":0,
			"name":"Icosphere"
		}
	],
	"cameras":[
		{
			"name":"Camera.001",
			"perspective":{
				"aspectRatio":1.7777777777777777,
				"yfov":0.9272952079772949,
				"zfar":100,
				"znear":0.10000000149011612
			},
			"type":"perspective"
		}
	],
	"materials":[
		{
			"doubleSided":true,
			"extensions":{
				"KHR_materials_specular":{
					"specularColorFactor":[
						0.0,
						0.0,
						0.0
					]
				},
				"KHR_materials_ior":{
					"ior":1
				}
			},
			"name":"Material.001",
			"pbrMetallicRoughness":{
				"metallicFactor":0
			}
		}
	],
	"meshes":[
		{
			"name":"Icosphere",
			"primitives":[
				{
					"attributes":{
						"POSITION":0,
						"NORMAL":1,
						"TEXCOORD_0":2
					},
					"indices":3,
					"material":0
				}
			]
		}
	],
	"accessors":[
		{
			"bufferView":0,
			"componentType":5126,
			"count":2737,
			"max":[
				2,
				2,
				1.9999998807907104
			],
			"min":[
				-1.9999998807907104,
				-2,
				-1.9999998807907104
			],
			"type":"VEC3"
		},
		{
			"bufferView":1,
			"componentType":5126,
			"count":2737,
			"type":"VEC3"
		},
		{
			"bufferView":2,
			"componentType":5126,
			"count":2737,
			"type":"VEC2"
		},
		{
			"bufferView":3,
			"componentType":5123,
			"count":15360,
			"type":"SCALAR"
		}
	],
	"bufferViews":[
		{
			"buffer":0,
			"byteLength":32844,
			"byteOffset":0,
			"target":34962
		},
		{
			"buffer":0,
			"byteLength":32844,
			"byteOffset":32844,
			"target":34962
		},
		{
			"buffer":0,
			"byteLength":21896,
			"byteOffset":65688,
			"target":34962
		},
		{
			"buffer":0,
			"byteLength":30720,
			"byteOffset":87584,
			"target":34963
		}
	],
	"buffers":[
		{
			"byteLength":118304,
			"uri":"sphere-white-furnace.bin"
		}
	]
}
